<?xml version="1.0" encoding="UTF-8" standalone="no"?>
<!-- The icon can be used freely in both personal and commercial projects with no attribution required, but always appreciated. 
You may NOT sub-license, resell, rent, redistribute or otherwise transfer the icon without express written permission from iconmonstr.com -->

<svg
   xmlns:dc="http://purl.org/dc/elements/1.1/"
   xmlns:cc="http://creativecommons.org/ns#"
   xmlns:rdf="http://www.w3.org/1999/02/22-rdf-syntax-ns#"
   xmlns:svg="http://www.w3.org/2000/svg"
   xmlns="http://www.w3.org/2000/svg"
   xmlns:sodipodi="http://sodipodi.sourceforge.net/DTD/sodipodi-0.dtd"
   xmlns:inkscape="http://www.inkscape.org/namespaces/inkscape"
   version="1.1"
   x="0px"
   y="0px"
   width="512px"
   height="512px"
   viewBox="0 0 512 512"
   enable-background="new 0 0 512 512"
   xml:space="preserve"
   id="svg2"
   inkscape:version="0.91 r13725"
   sodipodi:docname="delete_icon.svg"><metadata
     id="metadata9"><rdf:RDF><cc:Work
         rdf:about=""><dc:format>image/svg+xml</dc:format><dc:type
           rdf:resource="http://purl.org/dc/dcmitype/StillImage" /></cc:Work></rdf:RDF></metadata><defs
     id="defs7" /><sodipodi:namedview
     pagecolor="#ffffff"
     bordercolor="#666666"
     borderopacity="1"
     objecttolerance="10"
     gridtolerance="10"
     guidetolerance="10"
     inkscape:pageopacity="0"
     inkscape:pageshadow="2"
     inkscape:window-width="640"
     inkscape:window-height="480"
     id="namedview5"
     showgrid="false"
     inkscape:zoom="0.4609375"
     inkscape:cx="256"
     inkscape:cy="256"
     inkscape:window-x="0"
     inkscape:window-y="24"
     inkscape:window-maximized="0"
     inkscape:current-layer="svg2" /><path
     id="trash-can-15-icon"
     d="M407.299,86.735C385.938,65.374,326.266,50,255.996,50c-70.271,0-129.942,15.374-151.304,36.735  c-10.641,10.641-8.277,18.72-6.331,29.874c8.944,51.25,44.276,245.224,56.189,311.598c36.188,45.058,165.662,45.058,201.849,0  c12.036-64.394,48.812-264.504,57.468-313.307C415.383,106.363,418.086,97.522,407.299,86.735z M194.099,274.801l-8.955-5.871  l33.177-0.143l14.185,30.257l-9.202-5.809c-13.136,20.805-18.655,32.003-14.458,45.026  C175.695,305.646,179.359,298.674,194.099,274.801z M205.429,251.146l14.202-25.73c3.535-6.895,22.747-1.358,30.679,16.309  l-14.485,26.237L205.429,251.146z M254.025,345.055h-31.459c-7.746,0.244-12.201-19.246-0.582-34.736h32.041V345.055z   M255.082,256.385l9.537-5.239c-11.846-21.565-18.973-31.813-32.402-34.446c44.585-13.22,47.164-7.429,62.667,17.812l9.474-4.991  l-14.359,30.018L255.082,256.385z M310.706,256.478l16.568,26.742c4.286,6.457-9.934,20.509-29.222,18.79l-16.876-27.237  L310.706,256.478z M282.547,344.42l-0.09,10.592l-18.681-29.332l19.15-26.675l-0.091,10.882c24.604,0.207,37.03-0.998,45.888-11.425  C318.46,343.815,311.579,344.42,282.547,344.42z M256.804,138.358c-67.088,0-121.474-12.811-121.474-28.613  c0-15.802,54.386-28.612,121.474-28.612c67.088,0,121.473,12.811,121.473,28.612C378.277,125.548,323.893,138.358,256.804,138.358z" /><path
     style="fill:#333333"
     d="m 232.78644,459.92298 c -33.1152,-4.90298 -60.13206,-14.91968 -71.08017,-26.35346 -7.0335,-7.34551 -3.46944,9.76143 -38.51593,-184.87043 C 98.030113,108.97089 96.986505,102.01605 100.17615,95.327284 c 7.28613,-15.279165 40.99393,-30.552544 86.11064,-39.017686 29.00108,-5.441404 109.44219,-5.486422 138.70304,-0.07762 54.4266,10.060627 88.94915,28.222281 88.94915,46.794434 0,4.99277 -26.24219,151.07145 -53.01137,295.09082 -4.48375,24.12279 -6.36741,30.08976 -11.03751,34.9643 -14.11497,14.73287 -49.2823,25.67025 -86.73078,26.97416 -13.12542,0.457 -26.79322,0.3973 -30.37288,-0.13277 l 0,6e-5 z m 50.98305,-109.17703 c 0,-3.4626 2.13677,-4.44985 12.40858,-5.73323 16.39107,-2.04794 22.62988,-8.29215 28.89559,-28.92065 5.02192,-16.53358 4.56016,-20.48191 -1.72969,-14.78968 -4.46666,4.04228 -19.74892,7.93786 -31.43889,8.01406 -7.29548,0.0475 -8.13559,-0.52025 -8.13559,-5.49873 0,-7.23647 -1.74232,-5.93174 -12.43514,9.31191 l -8.88888,12.67198 9.03489,14.46862 c 9.41445,15.07645 12.28913,17.52696 12.28913,10.47572 z m -28.20339,-22.93578 0,-18.44068 -17.30022,0 c -16.9635,0 -17.36464,0.12453 -20.61017,6.40074 -3.81339,7.3743 -4.33178,20.17859 -1.06412,26.28426 1.94884,3.64144 4.67425,4.19636 20.61017,4.19636 l 18.36434,0 0,-18.44068 z m -46.67903,4.88136 c -1.02211,-5.47489 0.44012,-10.55831 6.54203,-22.74328 l 7.85836,-15.69241 5.29186,3.46734 c 2.91053,1.90705 5.29187,2.84258 5.29187,2.07896 0,-0.76364 -3.42923,-8.19794 -7.6205,-16.5207 l -7.62049,-15.13229 -17.87103,0.11368 c -16.64945,0.10609 -17.54756,0.33979 -13.13878,3.41986 l 4.73226,3.30607 -5.27463,9.92021 c -6.05509,11.38806 -6.42488,15.36072 -2.33383,25.07247 2.61905,6.21748 21.98268,29.76093 24.47719,29.76093 0.54011,0 0.38967,-3.17288 -0.33431,-7.05084 z m 109.61227,-34.71187 c 12.47551,-8.4956 12.62967,-10.31906 2.31563,-27.3894 -10.45593,-17.30515 -8.15015,-17.05904 -29.83888,-3.18492 l -11.37377,7.27572 8.83439,14.08998 c 7.9152,12.62396 9.56583,14.08998 15.86445,14.08998 3.86653,0 10.25572,-2.19661 14.19818,-4.88136 z m -74.21982,-42.90605 c 6.97874,-12.70483 7.06459,-13.17558 3.50255,-19.20563 -4.55235,-7.70651 -13.74711,-13.28615 -21.83884,-13.25241 -5.28576,0.022 -7.18787,1.87221 -13.22459,12.86342 -3.87796,7.06073 -7.05084,13.79401 -7.05084,14.96285 0,2.20689 25.47087,17.51815 29.28813,17.60593 1.19322,0.0273 5.38884,-5.81093 9.32359,-12.97416 z m 54.16104,-10.24649 c 3.61473,-8.05424 6.26933,-14.96723 5.89911,-15.36221 -0.37023,-0.39498 -2.53395,0.27772 -4.80827,1.4949 -3.42466,1.83283 -4.76418,1.14816 -7.79639,-3.98496 -6.81378,-11.5348 -15.96399,-17.40318 -27.11502,-17.38987 -8.95119,0.0106 -20.78718,2.20729 -30.7488,5.70658 -2.24029,0.78696 -0.6915,2.47046 4.97081,5.40317 5.17146,2.67848 11.07707,8.71846 15.90712,16.26904 7.23884,11.31612 7.4731,12.23991 4.06022,16.01109 -3.4326,3.79299 -3.30023,4.05027 2.53356,4.92415 3.38547,0.50713 11.63866,1.06833 18.34041,1.24712 l 12.18501,0.32506 6.57224,-14.64407 z m 22.57075,-110.18185 c 70.61228,-10.11983 78.02272,-34.22701 14.65105,-47.661959 -26.13596,-5.540886 -76.46621,-8.044216 -110.39839,-5.491002 -38.38727,2.888435 -60.53599,7.216362 -75.8931,14.829741 -20.3528,10.09002 -20.3528,16.80913 0,26.92132 30.39749,15.10285 109.26176,20.34173 171.64044,11.4019 z"
     id="path3337"
     inkscape:connector-curvature="0" /></svg>